<svg xmlns="http://www.w3.org/2000/svg" width="512" height="512" viewBox="0 0 512 512">
  <title>Native GB</title>
  <desc>A dark square mark containing pixel letters N and G in a Game Boy green palette.</desc>
  <rect width="512" height="512" rx="72" fill="#0b1110"/>
  <rect x="36" y="36" width="440" height="440" rx="52" fill="#18251f" stroke="#8bac0f" stroke-width="16"/>
  <rect x="76" y="92" width="360" height="256" rx="24" fill="#9bbc0f"/>
  <rect x="92" y="108" width="328" height="224" rx="12" fill="#8bac0f"/>
  <g fill="#0f380f" shape-rendering="crispEdges">
    <rect x="124" y="148" width="24" height="144"/><rect x="148" y="172" width="24" height="24"/>
    <rect x="172" y="196" width="24" height="24"/><rect x="196" y="220" width="24" height="24"/>
    <rect x="220" y="148" width="24" height="144"/><rect x="284" y="148" width="96" height="24"/>
    <rect x="260" y="172" width="24" height="96"/><rect x="284" y="268" width="96" height="24"/>
    <rect x="356" y="220" width="24" height="48"/><rect x="332" y="220" width="24" height="24"/>
  </g>
  <g fill="#8bac0f" shape-rendering="crispEdges">
    <rect x="120" y="392" width="32" height="32"/><rect x="88" y="424" width="96" height="32"/>
    <rect x="312" y="392" width="36" height="36"/><rect x="364" y="412" width="36" height="36"/>
  </g>
</svg>
