<svg xmlns="http://www.w3.org/2000/svg" width="1280" height="720" viewBox="0 0 1280 720" role="img" aria-labelledby="title description">
  <title id="title">Native platform landscape</title>
  <desc id="description">Original geometric platform scene in a four-tone handheld palette.</desc>
  <rect width="1280" height="720" fill="#07100b"/>
  <g stroke="#1b3021" stroke-width="2" opacity=".75">
    <path d="M0 80h1280M0 160h1280M0 240h1280M0 320h1280M0 400h1280M0 480h1280M0 560h1280M0 640h1280"/>
    <path d="M80 0v720M160 0v720M240 0v720M320 0v720M400 0v720M480 0v720M560 0v720M640 0v720M720 0v720M800 0v720M880 0v720M960 0v720M1040 0v720M1120 0v720M1200 0v720"/>
  </g>
  <g transform="translate(420 88)" shape-rendering="crispEdges">
    <rect width="440" height="544" fill="#d7e7c5" stroke="#8fae72" stroke-width="16"/>
    <rect x="32" y="32" width="376" height="480" fill="#dff8d0"/>

    <g fill="#8fae72">
      <path d="M32 336 128 240l96 96zM216 336l96-112 96 112z"/>
      <path d="M64 112h16V96h32V80h32v16h16v32H64z"/>
      <path d="M272 144v-16h16v-24h24V88h32v16h16v16h32v40H272z"/>
    </g>

    <g fill="#385b38">
      <path d="M32 392h376v120H32z"/>
      <path d="M32 376h376v16H32z"/>
      <path d="M272 332h80v60h-80zM256 296h112v24H256z"/>
    </g>

    <g fill="#8fae72" stroke="#102d1b" stroke-width="8">
      <rect x="96" y="248" width="48" height="48"/>
      <rect x="144" y="248" width="48" height="48"/>
      <rect x="192" y="248" width="48" height="48"/>
      <rect x="144" y="176" width="48" height="48"/>
    </g>

    <g fill="#102d1b">
      <path d="M32 408h376v16H32zM32 456h376v16H32z"/>
      <path d="M256 320h112v12H256z"/>
      <path d="M176 304h32v8h8v16h-32v-8h-8z"/>
      <path d="M176 328h32v28h-32zM160 332h16v12h-16zM208 328h16v12h-16z"/>
      <path d="M168 352h16v12h-16zM160 364h16v12h-16zM200 352h16v12h-16zM216 364h16v12h-16z"/>
    </g>
  </g>
  <g fill="#b8d95f" shape-rendering="crispEdges">
    <rect x="88" y="104" width="16" height="16"/><rect x="1128" y="144" width="8" height="8"/>
    <rect x="208" y="568" width="8" height="8"/><rect x="1064" y="536" width="16" height="16"/>
  </g>
</svg>
